<?xml version="1.0" encoding="utf-8"?>
<!-- Generator: Adobe Illustrator 17.0.2, SVG Export Plug-In . SVG Version: 6.00 Build 0)  -->
<!DOCTYPE svg PUBLIC "-//W3C//DTD SVG 1.1//EN" "http://www.w3.org/Graphics/SVG/1.1/DTD/svg11.dtd">
<svg version="1.1" id="Layer_1" xmlns="http://www.w3.org/2000/svg" xmlns:xlink="http://www.w3.org/1999/xlink" x="0px" y="0px"
	 width="484.694px" height="135.29px" viewBox="7.653 0 484.694 135.29" enable-background="new 7.653 0 484.694 135.29"
	 xml:space="preserve">
<g>
	<path fill="#144D03" d="M32.001,54.172H7.653V1.628H30.89c7.401,0,11.989,6.808,11.989,13.395c0,5.329-2.96,10.139-7.548,12.211
		c5.995,1.776,9.769,7.327,9.769,13.321C44.803,47.808,39.179,54.172,32.001,54.172z M9.133,3.108v23.83h21.313
		c6.438,0,10.953-6.068,10.953-11.915c0-6.29-4.292-11.767-10.509-11.915C30.89,3.108,9.133,3.108,9.133,3.108z M32.519,28.418
		H9.133v24.274h22.868c6.512,0,11.619-6.068,11.619-12.137C43.619,34.265,38.883,28.418,32.519,28.418z"/>
	<path fill="#144D03" d="M70.257,15.171c11.249,0,18.649,9.324,18.797,19.833v0.814H53.902c0.666,9.325,7.623,17.613,17.021,17.613
		c5.625,0,11.545-3.034,13.839-8.066l1.406,0.37c-2.368,5.994-9.473,9.177-15.245,9.177c-10.731,0-18.501-9.991-18.501-19.833
		C52.718,24.792,59.526,15.171,70.257,15.171z M87.5,34.338c-0.666-9.991-7.4-17.687-17.243-17.687
		c-10.139,0-15.911,9.25-16.355,17.687H87.5z"/>
	<path fill="#144D03" d="M127.089,54.172c-1.702-0.074-2.664-1.406-2.664-2.96v-3.553c-3.922,5.033-10.287,7.253-16.281,7.253
		c-6.957,0-12.433-5.181-12.433-11.767c0-8.289,9.177-10.953,15.837-10.953c6.291,0,10.879,1.406,12.877,2.146v-4.366
		c0-7.845-4.958-13.321-12.581-13.321c-3.7,0-8.141,1.702-12.433,4.736l-0.888-1.184c3.997-2.738,8.584-5.032,13.321-5.032
		c9.251,0,14.061,6.512,14.061,14.801v21.24c0.148,0.888,0.37,1.48,1.184,1.48C127.089,52.692,127.089,54.172,127.089,54.172z
		 M124.425,43.589v-7.623c-4.218-1.628-8.584-2.294-12.877-2.294c-6.291,0-14.357,2.294-14.357,9.473
		c0,6.216,5.254,10.287,10.953,10.287c5.625,0,12.137-2.072,15.171-6.808C124.055,45.513,124.425,44.477,124.425,43.589z"/>
	<path fill="#144D03" d="M169.12,54.172c-1.702-0.074-2.664-1.48-2.664-2.96v-6.809c-3.182,6.216-9.769,10.509-16.503,10.509
		c-10.731,0-12.581-9.103-12.581-17.613V15.763h1.48v21.536c0,8.659,1.924,16.133,11.101,16.133c7.844,0,14.579-6.438,16.503-13.247
		V15.763h1.48v35.449c0.074,0.888,0.444,1.48,1.184,1.48V54.172z"/>
	<path fill="#144D03" d="M194.649,52.396c-0.074,0.074-2.96,2.146-7.03,2.146c-3.553,0-6.661-2.368-6.661-5.92V17.243h-5.55v-1.48
		h5.55V2.368h1.48v13.395h9.251v1.48h-9.251v31.378c0.222,2.886,2.59,4.44,5.181,4.44c3.403,0,6.068-1.776,6.216-1.85
		L194.649,52.396z"/>
	<path fill="#144D03" d="M232.76,15.763l-22.868,52.174l-0.518,0.887c-0.74,1.259-2.221,1.851-4.959,1.851v-1.479
		c2.368,0,2.961-0.297,3.479-0.814c0.37-0.443,0.592-0.889,6.438-14.209l-17.835-38.409h1.628l16.947,36.559l16.059-36.559
		L232.76,15.763L232.76,15.763z"/>
	<path fill="#144D03" d="M263.023,45.439c4.811,4.958,11.692,7.623,18.427,7.623c8.067,0,17.909-3.331,17.909-12.433
		c0-10.064-10.435-11.989-18.278-11.989c-9.547,0-18.428-3.182-18.428-13.839c0-10.139,9.917-13.543,18.205-13.543
		c8.659,0,13.025,2.59,16.355,7.327l-1.406,0.592c-3.33-5.032-9.473-6.438-14.949-6.438c-8.215,0-16.503,3.108-16.725,12.063
		c0,10.064,8.807,12.359,16.947,12.359c9.473,0,19.759,2.738,19.759,13.469c0,10.361-11.101,13.913-19.39,13.913
		c-8.658,0-15.097-3.7-19.537-8.141L263.023,45.439z"/>
	<path fill="#144D03" d="M327.182,54.912c-6.809,0-12.359-4.367-15.689-9.547v24.57h-1.479V15.763h1.479v8.141
		c3.257-5.106,9.177-8.732,15.023-8.732c10.805,0,18.501,10.064,18.501,19.907C344.351,45.587,337.912,54.912,327.182,54.912z
		 M326.516,16.651c-5.921,0-15.023,5.625-15.023,11.767v13.839c2.738,6.217,8.881,11.175,15.689,11.175
		c9.99,0,16.207-9.25,16.354-18.353C343.536,25.458,335.989,16.651,326.516,16.651z"/>
	<path fill="#144D03" d="M381.867,54.172h-1.479V32.784c0-8.066-1.776-16.133-10.805-16.133c-7.771,0-14.283,6.586-16.06,13.247
		v24.273h-1.479V0h1.479v25.68c3.257-6.512,9.769-10.508,16.06-10.508c10.805,0,12.284,9.842,12.284,17.613V54.172z"/>
	<path fill="#144D03" d="M407.542,15.171c11.249,0,18.649,9.324,18.798,19.833v0.814h-35.152
		c0.666,9.325,7.622,17.613,17.021,17.613c5.625,0,11.545-3.034,13.84-8.066l1.405,0.37c-2.368,5.994-9.473,9.177-15.245,9.177
		c-10.73,0-18.501-9.991-18.501-19.833C390.003,24.792,396.812,15.171,407.542,15.171z M424.785,34.338
		c-0.666-9.991-7.4-17.687-17.243-17.687c-10.139,0-15.911,9.25-16.354,17.687H424.785z"/>
	<path fill="#144D03" d="M451.276,17.243c-7.845,0.296-13.024,5.625-14.949,12.655v24.273h-1.479V15.763h1.479v9.917
		c3.183-6.216,8.215-9.917,14.949-9.917V17.243z"/>
	<path fill="#144D03" d="M473.549,15.171c11.249,0,18.649,9.324,18.798,19.833v0.814h-35.152
		c0.666,9.325,7.622,17.613,17.021,17.613c5.625,0,11.545-3.034,13.84-8.066l1.405,0.37c-2.368,5.994-9.473,9.177-15.245,9.177
		c-10.73,0-18.501-9.991-18.501-19.833C456.01,24.792,462.819,15.171,473.549,15.171z M490.792,34.338
		c-0.666-9.991-7.4-17.687-17.243-17.687c-10.139,0-15.911,9.25-16.354,17.687H490.792z"/>
</g>
<line fill="none" stroke="#999999" stroke-miterlimit="10" x1="20" y1="88.5" x2="479" y2="88.5"/>
<g>
	<path fill="#B3B3B3" d="M145.686,116.362v18.563h-1.768v-18.563H145.686z"/>
	<path fill="#B3B3B3" d="M150.859,121.51v2.313h0.052c0.312-0.814,0.866-1.469,1.664-1.963c0.797-0.494,1.672-0.74,2.626-0.74
		c0.936,0,1.72,0.121,2.353,0.363c0.632,0.243,1.139,0.586,1.521,1.027c0.381,0.441,0.65,0.984,0.806,1.625
		c0.156,0.642,0.234,1.361,0.234,2.158v8.632h-1.638v-8.372c0-0.572-0.052-1.105-0.156-1.6c-0.104-0.493-0.286-0.922-0.546-1.286
		c-0.26-0.364-0.611-0.65-1.053-0.858c-0.442-0.208-0.993-0.312-1.651-0.312s-1.244,0.117-1.755,0.352s-0.945,0.555-1.3,0.962
		c-0.355,0.407-0.633,0.894-0.832,1.456c-0.2,0.563-0.308,1.175-0.325,1.833v7.826h-1.638V121.51H150.859z"/>
	<path fill="#B3B3B3" d="M165.731,122.888v12.038h-1.638v-12.038h-2.288v-1.378h2.288v-1.222c0-0.572,0.043-1.102,0.13-1.586
		c0.086-0.485,0.251-0.901,0.494-1.248s0.576-0.615,1.001-0.807c0.425-0.19,0.966-0.285,1.625-0.285
		c0.243,0,0.468,0.008,0.676,0.025s0.442,0.043,0.702,0.078v1.404c-0.225-0.035-0.433-0.065-0.624-0.092
		c-0.191-0.025-0.382-0.039-0.572-0.039c-0.451,0-0.797,0.07-1.04,0.209s-0.42,0.324-0.533,0.559
		c-0.113,0.234-0.178,0.507-0.195,0.818c-0.018,0.312-0.026,0.65-0.026,1.015v1.17h2.652v1.378H165.731z"/>
	<path fill="#B3B3B3" d="M178.328,121.692c0.789,0.381,1.452,0.893,1.989,1.533c0.537,0.642,0.944,1.391,1.222,2.249
		s0.416,1.772,0.416,2.743s-0.139,1.885-0.416,2.743s-0.685,1.608-1.222,2.249c-0.538,0.641-1.201,1.148-1.989,1.521
		c-0.789,0.372-1.694,0.559-2.717,0.559c-1.023,0-1.929-0.187-2.717-0.559c-0.789-0.373-1.452-0.881-1.989-1.521
		c-0.538-0.641-0.945-1.391-1.222-2.249s-0.416-1.772-0.416-2.743s0.139-1.885,0.416-2.743s0.685-1.607,1.222-2.249
		c0.537-0.641,1.2-1.152,1.989-1.533c0.788-0.382,1.694-0.572,2.717-0.572C176.634,121.12,177.539,121.311,178.328,121.692z
		 M173.557,122.991c-0.589,0.33-1.079,0.764-1.469,1.301s-0.685,1.148-0.884,1.833s-0.299,1.382-0.299,2.093s0.1,1.408,0.299,2.093
		s0.494,1.296,0.884,1.833s0.879,0.971,1.469,1.301c0.589,0.329,1.274,0.494,2.054,0.494s1.464-0.165,2.054-0.494
		c0.589-0.33,1.079-0.764,1.469-1.301s0.685-1.148,0.884-1.833s0.299-1.382,0.299-2.093s-0.1-1.408-0.299-2.093
		s-0.494-1.296-0.884-1.833s-0.88-0.971-1.469-1.301c-0.59-0.328-1.274-0.494-2.054-0.494S174.146,122.663,173.557,122.991z"/>
	<path fill="#B3B3B3" d="M185.907,121.51v3.146h0.052c0.416-1.092,1.062-1.932,1.937-2.521c0.875-0.589,1.919-0.857,3.133-0.807
		v1.639c-0.746-0.035-1.421,0.064-2.028,0.299c-0.607,0.234-1.131,0.568-1.573,1.001c-0.442,0.434-0.784,0.949-1.027,1.548
		c-0.243,0.598-0.364,1.252-0.364,1.963v7.149h-1.638V121.51H185.907z"/>
	<path fill="#B3B3B3" d="M194.097,121.51v2.263h0.078c0.433-0.832,1.001-1.482,1.703-1.951c0.702-0.467,1.599-0.701,2.691-0.701
		c0.884,0,1.686,0.217,2.405,0.65c0.719,0.433,1.2,1.092,1.443,1.975c0.398-0.883,0.988-1.542,1.768-1.975
		c0.78-0.434,1.612-0.65,2.496-0.65c2.964,0,4.446,1.568,4.446,4.705v9.101h-1.638v-9.022c0-1.108-0.234-1.953-0.702-2.535
		c-0.468-0.58-1.292-0.871-2.47-0.871c-0.711,0-1.3,0.135-1.768,0.404c-0.468,0.269-0.841,0.628-1.118,1.078
		c-0.277,0.451-0.472,0.967-0.585,1.547c-0.113,0.582-0.169,1.184-0.169,1.808v7.592h-1.638v-9.101c0-0.449-0.048-0.879-0.143-1.287
		c-0.096-0.406-0.251-0.762-0.468-1.065c-0.217-0.303-0.507-0.542-0.871-0.715c-0.364-0.173-0.806-0.261-1.326-0.261
		c-0.694,0-1.296,0.127-1.807,0.378c-0.512,0.251-0.927,0.598-1.248,1.04c-0.321,0.441-0.559,0.962-0.715,1.56
		c-0.156,0.599-0.234,1.253-0.234,1.964v7.487h-1.638V121.51H194.097z"/>
	<path fill="#B3B3B3" d="M215.455,130.493c0.165,0.633,0.429,1.2,0.793,1.703c0.364,0.502,0.823,0.918,1.378,1.248
		c0.555,0.329,1.222,0.494,2.002,0.494c1.196,0,2.132-0.312,2.808-0.937s1.144-1.456,1.404-2.496h1.638
		c-0.347,1.525-0.984,2.704-1.911,3.536s-2.24,1.248-3.939,1.248c-1.057,0-1.972-0.187-2.743-0.559
		c-0.771-0.373-1.4-0.885-1.885-1.535c-0.485-0.649-0.845-1.403-1.079-2.262c-0.234-0.857-0.351-1.764-0.351-2.717
		c0-0.884,0.117-1.75,0.351-2.6c0.234-0.85,0.594-1.607,1.079-2.275c0.485-0.667,1.114-1.205,1.885-1.611
		c0.771-0.408,1.686-0.611,2.743-0.611c1.075,0,1.993,0.217,2.756,0.65c0.762,0.433,1.382,1,1.859,1.702
		c0.477,0.702,0.819,1.509,1.027,2.418c0.208,0.91,0.294,1.833,0.26,2.769h-10.322C215.208,129.249,215.29,129.86,215.455,130.493z
		 M223.567,125.487c-0.199-0.571-0.481-1.078-0.845-1.521c-0.364-0.442-0.806-0.797-1.326-1.065c-0.52-0.27-1.109-0.404-1.768-0.404
		c-0.676,0-1.274,0.135-1.794,0.404c-0.52,0.269-0.962,0.623-1.326,1.065c-0.364,0.442-0.654,0.954-0.871,1.534
		c-0.217,0.58-0.36,1.174-0.429,1.781h8.684C223.875,126.657,223.766,126.06,223.567,125.487z"/>
	<path fill="#B3B3B3" d="M238.036,134.926v-2.548h-0.052c-0.174,0.434-0.429,0.832-0.767,1.195
		c-0.338,0.365-0.724,0.672-1.157,0.924c-0.434,0.251-0.897,0.445-1.391,0.584c-0.494,0.139-0.984,0.209-1.469,0.209
		c-1.023,0-1.911-0.187-2.665-0.559c-0.754-0.373-1.382-0.885-1.885-1.535c-0.503-0.649-0.875-1.403-1.118-2.262
		c-0.243-0.857-0.364-1.764-0.364-2.717s0.121-1.859,0.364-2.717c0.243-0.858,0.615-1.612,1.118-2.262
		c0.502-0.65,1.131-1.166,1.885-1.547c0.754-0.382,1.642-0.572,2.665-0.572c0.502,0,0.992,0.061,1.469,0.182
		s0.923,0.309,1.339,0.559c0.416,0.252,0.784,0.56,1.105,0.924c0.32,0.363,0.567,0.789,0.741,1.273h0.052v-7.695h1.638v18.563
		H238.036z M229.054,130.284c0.165,0.686,0.424,1.297,0.78,1.834s0.81,0.975,1.365,1.312c0.555,0.338,1.222,0.508,2.002,0.508
		c0.867,0,1.599-0.17,2.197-0.508c0.598-0.338,1.083-0.775,1.456-1.312s0.641-1.148,0.806-1.834
		c0.165-0.684,0.247-1.373,0.247-2.066s-0.083-1.382-0.247-2.066c-0.165-0.686-0.434-1.296-0.806-1.834
		c-0.373-0.537-0.858-0.975-1.456-1.312c-0.598-0.338-1.33-0.508-2.197-0.508c-0.78,0-1.447,0.17-2.002,0.508
		c-0.555,0.338-1.01,0.775-1.365,1.312c-0.355,0.538-0.615,1.148-0.78,1.834c-0.165,0.685-0.247,1.373-0.247,2.066
		S228.889,129.601,229.054,130.284z"/>
	<path fill="#B3B3B3" d="M251.479,131.208c0.312,0.641,0.74,1.152,1.287,1.533c0.545,0.382,1.191,0.655,1.938,0.819
		c0.744,0.165,1.541,0.247,2.391,0.247c0.486,0,1.016-0.068,1.586-0.208c0.572-0.138,1.105-0.359,1.6-0.663
		c0.494-0.303,0.906-0.693,1.234-1.17c0.33-0.477,0.494-1.053,0.494-1.729c0-0.521-0.117-0.971-0.35-1.353
		c-0.234-0.381-0.539-0.702-0.91-0.962c-0.373-0.26-0.785-0.472-1.236-0.637c-0.449-0.164-0.893-0.299-1.326-0.403l-4.133-1.014
		c-0.537-0.139-1.062-0.312-1.572-0.521c-0.512-0.207-0.959-0.484-1.34-0.832c-0.381-0.346-0.689-0.771-0.924-1.273
		c-0.233-0.503-0.35-1.118-0.35-1.846c0-0.451,0.086-0.979,0.26-1.586c0.172-0.607,0.499-1.18,0.975-1.717s1.131-0.992,1.963-1.365
		c0.832-0.372,1.898-0.559,3.197-0.559c0.92,0,1.795,0.121,2.627,0.364s1.561,0.606,2.184,1.092
		c0.625,0.485,1.123,1.088,1.496,1.808c0.371,0.719,0.559,1.555,0.559,2.508h-1.768c-0.035-0.71-0.195-1.33-0.482-1.858
		c-0.285-0.528-0.658-0.971-1.117-1.326c-0.459-0.354-0.988-0.624-1.586-0.806s-1.227-0.273-1.885-0.273
		c-0.607,0-1.193,0.065-1.756,0.195s-1.057,0.338-1.482,0.624c-0.424,0.286-0.766,0.663-1.025,1.131
		c-0.262,0.468-0.391,1.049-0.391,1.742c0,0.434,0.074,0.811,0.221,1.131c0.146,0.321,0.352,0.594,0.611,0.819
		c0.26,0.225,0.559,0.407,0.896,0.546s0.697,0.251,1.08,0.338l4.523,1.118c0.658,0.174,1.277,0.386,1.859,0.637
		c0.58,0.252,1.092,0.563,1.533,0.936c0.441,0.373,0.789,0.828,1.041,1.365c0.25,0.537,0.377,1.188,0.377,1.95
		c0,0.208-0.023,0.485-0.066,0.832s-0.146,0.715-0.311,1.104c-0.166,0.391-0.4,0.785-0.703,1.184s-0.719,0.758-1.248,1.079
		s-1.184,0.581-1.963,0.78s-1.715,0.299-2.809,0.299c-1.092,0-2.105-0.126-3.041-0.377c-0.936-0.252-1.734-0.637-2.393-1.157
		s-1.167-1.187-1.522-2.002c-0.355-0.814-0.506-1.794-0.454-2.938h1.769C251.02,129.769,251.166,130.567,251.479,131.208z"/>
	<path fill="#B3B3B3" d="M267.911,116.362v11.647l7.436-6.5h2.185l-5.721,4.966l6.11,8.45h-2.054l-5.305-7.306l-2.651,2.209v5.097
		h-1.639v-18.563H267.911z"/>
	<path fill="#B3B3B3" d="M280.936,116.362v2.625h-1.638v-2.625H280.936z M280.936,121.51v13.416h-1.638V121.51H280.936z"/>
	<path fill="#B3B3B3" d="M285.694,121.51v2.313h0.052c0.312-0.814,0.867-1.469,1.664-1.963c0.798-0.494,1.673-0.74,2.626-0.74
		c0.937,0,1.721,0.121,2.354,0.363c0.633,0.243,1.14,0.586,1.521,1.027c0.382,0.441,0.65,0.984,0.807,1.625
		c0.155,0.642,0.233,1.361,0.233,2.158v8.632h-1.638v-8.372c0-0.572-0.052-1.105-0.156-1.6c-0.104-0.493-0.286-0.922-0.546-1.286
		s-0.611-0.65-1.053-0.858c-0.442-0.208-0.992-0.312-1.651-0.312s-1.244,0.117-1.755,0.352c-0.512,0.234-0.945,0.555-1.3,0.962
		c-0.355,0.407-0.633,0.894-0.832,1.456c-0.199,0.563-0.308,1.175-0.325,1.833v7.826h-1.638V121.51H285.694z"/>
	<path fill="#B3B3B3" d="M318.388,120.067c-0.355-0.563-0.789-1.036-1.3-1.418c-0.512-0.381-1.075-0.672-1.69-0.871
		s-1.261-0.299-1.937-0.299c-1.23,0-2.288,0.234-3.172,0.702s-1.608,1.088-2.171,1.859c-0.563,0.771-0.979,1.642-1.248,2.612
		c-0.27,0.971-0.403,1.968-0.403,2.99c0,1.006,0.134,1.998,0.403,2.977c0.269,0.98,0.685,1.855,1.248,2.627
		c0.562,0.771,1.287,1.391,2.171,1.859c0.884,0.467,1.941,0.701,3.172,0.701c0.866,0,1.646-0.156,2.34-0.468
		s1.291-0.737,1.794-1.274s0.91-1.165,1.223-1.885c0.312-0.719,0.511-1.495,0.598-2.326h1.768c-0.121,1.143-0.39,2.175-0.806,3.094
		c-0.416,0.918-0.953,1.698-1.612,2.34c-0.658,0.641-1.435,1.135-2.327,1.482c-0.893,0.346-1.885,0.52-2.977,0.52
		c-1.456,0-2.734-0.265-3.835-0.793c-1.101-0.529-2.015-1.235-2.743-2.119c-0.728-0.885-1.273-1.906-1.638-3.068
		c-0.364-1.16-0.546-2.383-0.546-3.666c0-1.282,0.182-2.504,0.546-3.666c0.364-1.16,0.91-2.188,1.638-3.08
		c0.729-0.893,1.643-1.604,2.743-2.133c1.101-0.528,2.379-0.793,3.835-0.793c0.884,0,1.746,0.13,2.587,0.391
		c0.841,0.26,1.604,0.646,2.288,1.156c0.685,0.512,1.257,1.141,1.716,1.885c0.459,0.746,0.75,1.604,0.871,2.574h-1.768
		C318.999,121.267,318.744,120.63,318.388,120.067z"/>
	<path fill="#B3B3B3" d="M323.913,123.59c0.276-0.572,0.653-1.04,1.131-1.404c0.477-0.364,1.035-0.632,1.677-0.806
		c0.641-0.174,1.352-0.26,2.132-0.26c0.589,0,1.179,0.057,1.769,0.168c0.589,0.113,1.117,0.326,1.586,0.638
		c0.468,0.312,0.849,0.75,1.144,1.313c0.295,0.562,0.442,1.295,0.442,2.196v7.124c0,0.659,0.32,0.988,0.962,0.988
		c0.19,0,0.363-0.035,0.52-0.104v1.377c-0.19,0.035-0.359,0.062-0.507,0.078c-0.147,0.018-0.334,0.026-0.559,0.026
		c-0.416,0-0.75-0.056-1.001-0.169c-0.252-0.113-0.447-0.273-0.585-0.48c-0.14-0.209-0.23-0.455-0.273-0.742
		c-0.043-0.285-0.065-0.602-0.065-0.948h-0.052c-0.295,0.433-0.594,0.819-0.896,1.157c-0.304,0.338-0.642,0.619-1.015,0.845
		s-0.797,0.398-1.273,0.521c-0.478,0.121-1.045,0.182-1.703,0.182c-0.624,0-1.209-0.074-1.755-0.221
		c-0.546-0.147-1.023-0.382-1.431-0.703c-0.407-0.32-0.728-0.728-0.962-1.221c-0.233-0.494-0.351-1.08-0.351-1.756
		c0-0.936,0.208-1.668,0.624-2.197c0.416-0.528,0.966-0.932,1.651-1.209c0.685-0.277,1.456-0.472,2.313-0.584
		c0.858-0.113,1.729-0.222,2.613-0.326c0.347-0.034,0.649-0.078,0.91-0.129c0.26-0.053,0.477-0.144,0.649-0.273
		s0.308-0.308,0.403-0.533c0.095-0.225,0.143-0.52,0.143-0.884c0-0.555-0.091-1.01-0.272-1.365
		c-0.183-0.354-0.434-0.637-0.754-0.845c-0.321-0.208-0.693-0.352-1.118-0.43s-0.88-0.117-1.365-0.117
		c-1.04,0-1.89,0.248-2.548,0.742c-0.659,0.494-1.006,1.287-1.04,2.379h-1.638C323.471,124.838,323.635,124.161,323.913,123.59z
		 M332.103,127.594c-0.104,0.19-0.304,0.329-0.598,0.416c-0.295,0.087-0.555,0.147-0.78,0.183c-0.693,0.121-1.408,0.229-2.145,0.324
		c-0.737,0.096-1.409,0.238-2.016,0.43c-0.606,0.19-1.104,0.463-1.495,0.818c-0.39,0.355-0.585,0.863-0.585,1.521
		c0,0.416,0.082,0.784,0.247,1.104c0.165,0.321,0.386,0.599,0.663,0.832s0.598,0.412,0.962,0.533
		c0.364,0.122,0.736,0.183,1.118,0.183c0.624,0,1.222-0.096,1.794-0.287c0.572-0.189,1.07-0.468,1.495-0.832
		c0.425-0.363,0.763-0.806,1.014-1.326c0.251-0.52,0.377-1.108,0.377-1.768v-2.132H332.103z"/>
	<path fill="#B3B3B3" d="M338.578,121.51v3.146h0.052c0.416-1.092,1.062-1.932,1.937-2.521c0.875-0.589,1.92-0.857,3.134-0.807
		v1.639c-0.746-0.035-1.422,0.064-2.028,0.299c-0.607,0.234-1.131,0.568-1.573,1.001c-0.441,0.434-0.784,0.949-1.027,1.548
		c-0.242,0.598-0.363,1.252-0.363,1.963v7.149h-1.639V121.51H338.578z"/>
	<path fill="#B3B3B3" d="M345.999,130.493c0.165,0.633,0.43,1.2,0.793,1.703c0.364,0.502,0.823,0.918,1.379,1.248
		c0.554,0.329,1.222,0.494,2.002,0.494c1.195,0,2.132-0.312,2.808-0.937s1.144-1.456,1.404-2.496h1.638
		c-0.347,1.525-0.984,2.704-1.911,3.536c-0.928,0.832-2.24,1.248-3.938,1.248c-1.058,0-1.973-0.187-2.743-0.559
		c-0.771-0.373-1.4-0.885-1.885-1.535c-0.486-0.649-0.846-1.403-1.079-2.262c-0.234-0.857-0.352-1.764-0.352-2.717
		c0-0.884,0.117-1.75,0.352-2.6c0.233-0.85,0.593-1.607,1.079-2.275c0.484-0.667,1.113-1.205,1.885-1.611
		c0.771-0.408,1.686-0.611,2.743-0.611c1.074,0,1.993,0.217,2.756,0.65c0.763,0.433,1.382,1,1.858,1.702s0.819,1.509,1.027,2.418
		c0.208,0.91,0.295,1.833,0.26,2.769h-10.321C345.753,129.249,345.835,129.86,345.999,130.493z M354.112,125.487
		c-0.199-0.571-0.48-1.078-0.845-1.521s-0.806-0.797-1.326-1.065c-0.52-0.27-1.109-0.404-1.768-0.404
		c-0.677,0-1.274,0.135-1.794,0.404c-0.521,0.269-0.963,0.623-1.326,1.065c-0.364,0.442-0.654,0.954-0.871,1.534
		s-0.36,1.174-0.429,1.781h8.684C354.419,126.657,354.311,126.06,354.112,125.487z"/>
</g>
</svg>
