<?xml version="1.0" encoding="utf-8"?>
<!-- Generator: Adobe Illustrator 17.0.2, SVG Export Plug-In . SVG Version: 6.00 Build 0)  -->
<!DOCTYPE svg PUBLIC "-//W3C//DTD SVG 1.1//EN" "http://www.w3.org/Graphics/SVG/1.1/DTD/svg11.dtd">
<svg version="1.1" id="Layer_1" xmlns="http://www.w3.org/2000/svg" xmlns:xlink="http://www.w3.org/1999/xlink" x="0px" y="0px"
	 width="505px" height="134px" viewBox="0 0 505 134" enable-background="new 0 0 505 134" xml:space="preserve">
<g>
	<path fill="#FFFFFF" d="M25.165,58.895h11.644v4.502c2.138-2.242,4.036-3.778,5.693-4.606c1.689-0.862,3.691-1.294,6.003-1.294
		c3.071,0,6.279,1.001,9.626,3.002l-5.33,10.662c-2.209-1.587-4.365-2.381-6.469-2.381c-6.349,0-9.522,4.796-9.522,14.387v26.136
		H25.165V58.895z"/>
	<path fill="#FFFFFF" d="M109.988,86.842H73.865c0.309,4.14,1.655,7.435,4.036,9.884c2.381,2.415,5.434,3.623,9.16,3.623
		c2.899,0,5.296-0.691,7.194-2.071c1.863-1.379,3.984-3.932,6.365-7.659l9.833,5.485c-1.519,2.588-3.124,4.806-4.814,6.651
		c-1.69,1.846-3.501,3.364-5.434,4.555c-1.932,1.189-4.02,2.061-6.262,2.613c-2.243,0.552-4.675,0.828-7.297,0.828
		c-7.523,0-13.561-2.414-18.114-7.245c-4.554-4.865-6.831-11.316-6.831-19.356c0-7.971,2.207-14.422,6.625-19.357
		c4.451-4.864,10.35-7.297,17.699-7.297c7.418,0,13.283,2.363,17.596,7.09c4.278,4.693,6.417,11.196,6.417,19.511L109.988,86.842z
		 M98.033,77.319c-1.622-6.21-5.537-9.316-11.748-9.316c-1.415,0-2.742,0.217-3.984,0.647c-1.242,0.432-2.373,1.054-3.39,1.864
		c-1.018,0.811-1.888,1.786-2.613,2.923c-0.725,1.139-1.277,2.433-1.656,3.882H98.033z"/>
	<path fill="#FFFFFF" d="M137.003,29.395v68.573H160.5v11.334h-35.555V29.395H137.003z"/>
	<path fill="#FFFFFF" d="M206.871,58.895h11.697v50.408h-11.697v-5.279c-4.796,4.485-9.955,6.727-15.474,6.727
		c-6.97,0-12.731-2.518-17.286-7.556c-4.521-5.141-6.78-11.558-6.78-19.252c0-7.556,2.26-13.852,6.78-18.89
		c4.519-5.037,10.178-7.556,16.974-7.556c5.866,0,11.128,2.415,15.785,7.246V58.895z M179.235,83.943
		c0,4.831,1.294,8.764,3.882,11.8c2.656,3.072,6.004,4.607,10.04,4.607c4.313,0,7.798-1.483,10.455-4.451
		c2.656-3.071,3.985-6.969,3.985-11.697c0-4.726-1.329-8.624-3.985-11.696c-2.657-3.001-6.107-4.503-10.351-4.503
		c-4.003,0-7.349,1.519-10.04,4.555C180.562,75.629,179.235,79.424,179.235,83.943z"/>
	<path fill="#FFFFFF" d="M244.91,21.891v42.852c4.657-4.831,9.936-7.246,15.837-7.246c6.797,0,12.454,2.536,16.975,7.608
		c4.519,5.038,6.78,11.316,6.78,18.838c0,7.763-2.277,14.181-6.832,19.252c-4.519,5.038-10.23,7.556-17.13,7.556
		c-5.831,0-11.042-2.242-15.63-6.727v5.279h-11.645V21.891H244.91z M272.599,84.461c0-4.83-1.312-8.763-3.934-11.8
		c-2.658-3.105-5.987-4.659-9.988-4.659c-4.279,0-7.763,1.502-10.456,4.503c-2.657,2.968-3.984,6.831-3.984,11.593
		c0,4.899,1.311,8.816,3.934,11.748c2.621,3.001,6.072,4.503,10.351,4.503c4.036,0,7.383-1.502,10.04-4.503
		C271.253,92.811,272.599,89.016,272.599,84.461z"/>
	<path fill="#FFFFFF" d="M342.725,86.842h-36.124c0.31,4.14,1.656,7.435,4.037,9.884c2.38,2.415,5.433,3.623,9.159,3.623
		c2.898,0,5.296-0.691,7.194-2.071c1.864-1.379,3.985-3.932,6.365-7.659l9.835,5.485c-1.52,2.588-3.124,4.806-4.814,6.651
		c-1.69,1.846-3.503,3.364-5.434,4.555c-1.933,1.189-4.02,2.061-6.262,2.613c-2.244,0.552-4.676,0.828-7.298,0.828
		c-7.522,0-13.559-2.414-18.114-7.245c-4.554-4.865-6.83-11.316-6.83-19.356c0-7.971,2.207-14.422,6.624-19.357
		c4.451-4.864,10.351-7.297,17.699-7.297c7.418,0,13.283,2.363,17.597,7.09c4.277,4.693,6.417,11.196,6.417,19.511L342.725,86.842z
		 M330.769,77.319c-1.622-6.21-5.538-9.316-11.748-9.316c-1.416,0-2.743,0.217-3.985,0.647c-1.241,0.432-2.372,1.054-3.39,1.864
		c-1.018,0.811-1.888,1.786-2.613,2.923c-0.724,1.139-1.277,2.433-1.655,3.882H330.769z"/>
	<path fill="#FFFFFF" d="M367.1,21.891v87.412h-11.645V21.891H367.1z"/>
</g>
<path fill="#FFFFFF" d="M384,8v117h118V8H384z M432,110h-11V60h11V110z M432.01,44.23c-1.45,1.49-3.23,2.23-5.33,2.23
	c-2.1,0-3.9-0.74-5.38-2.23c-1.49-1.48-2.23-3.29-2.23-5.43c0-2.04,0.74-3.8,2.23-5.28c1.48-1.48,3.26-2.23,5.33-2.23
	c2.1,0,3.9,0.75,5.38,2.23c1.48,1.45,2.23,3.23,2.23,5.33C434.24,40.96,433.49,42.75,432.01,44.23z M468,71h-9v39h-11V71h-5V60h5V41
	h11v19h9V71z"/>
<rect x="7" y="7" fill="none" stroke="#FFFFFF" stroke-width="14" stroke-miterlimit="10" width="491" height="120"/>
</svg>
