<?xml version="1.0" encoding="utf-8"?>
<!-- Generator: Adobe Illustrator 17.0.2, SVG Export Plug-In . SVG Version: 6.00 Build 0)  -->
<!DOCTYPE svg PUBLIC "-//W3C//DTD SVG 1.1//EN" "http://www.w3.org/Graphics/SVG/1.1/DTD/svg11.dtd">
<svg version="1.1" id="Layer_1" xmlns="http://www.w3.org/2000/svg" xmlns:xlink="http://www.w3.org/1999/xlink" x="0px" y="0px"
	 width="160px" height="160px" viewBox="0 0 160 160" enable-background="new 0 0 160 160" xml:space="preserve">
<path fill="#FFFFFF" d="M60.233,72.782c-0.123-0.453-0.343-0.859-0.663-1.202c-0.32-0.338-0.722-0.835-1.207-1.032
	C57.879,70.346,57.326,70,56.709,70h-4.43l-1.984,8h4.498c0.594,0,1.184-0.12,1.769-0.317c0.585-0.183,1.125-0.405,1.618-0.748
	c0.498-0.343,0.928-0.776,1.294-1.229c0.361-0.448,0.608-0.96,0.741-1.49C60.347,73.732,60.352,73.234,60.233,72.782z
	 M60.233,72.782c-0.123-0.453-0.343-0.859-0.663-1.202c-0.32-0.338-0.722-0.835-1.207-1.032C57.879,70.346,57.326,70,56.709,70
	h-4.43l-1.984,8h4.498c0.594,0,1.184-0.12,1.769-0.317c0.585-0.183,1.125-0.405,1.618-0.748c0.498-0.343,0.928-0.776,1.294-1.229
	c0.361-0.448,0.608-0.96,0.741-1.49C60.347,73.732,60.352,73.234,60.233,72.782z M60.233,72.782
	c-0.123-0.453-0.343-0.859-0.663-1.202c-0.32-0.338-0.722-0.835-1.207-1.032C57.879,70.346,57.326,70,56.709,70h-4.43l-1.984,8
	h4.498c0.594,0,1.184-0.12,1.769-0.317c0.585-0.183,1.125-0.405,1.618-0.748c0.498-0.343,0.928-0.776,1.294-1.229
	c0.361-0.448,0.608-0.96,0.741-1.49C60.347,73.732,60.352,73.234,60.233,72.782z M60.233,72.782
	c-0.123-0.453-0.343-0.859-0.663-1.202c-0.32-0.338-0.722-0.835-1.207-1.032C57.879,70.346,57.326,70,56.709,70h-4.43l-1.984,8
	h4.498c0.594,0,1.184-0.12,1.769-0.317c0.585-0.183,1.125-0.405,1.618-0.748c0.498-0.343,0.928-0.776,1.294-1.229
	c0.361-0.448,0.608-0.96,0.741-1.49C60.347,73.732,60.352,73.234,60.233,72.782z M60.233,72.782
	c-0.123-0.453-0.343-0.859-0.663-1.202c-0.32-0.338-0.722-0.835-1.207-1.032C57.879,70.346,57.326,70,56.709,70h-4.43l-1.984,8
	h4.498c0.594,0,1.184-0.12,1.769-0.317c0.585-0.183,1.125-0.405,1.618-0.748c0.498-0.343,0.928-0.776,1.294-1.229
	c0.361-0.448,0.608-0.96,0.741-1.49C60.347,73.732,60.352,73.234,60.233,72.782z M60.233,72.782
	c-0.123-0.453-0.343-0.859-0.663-1.202c-0.32-0.338-0.722-0.835-1.207-1.032C57.879,70.346,57.326,70,56.709,70h-4.43l-1.984,8
	h4.498c0.594,0,1.184-0.12,1.769-0.317c0.585-0.183,1.125-0.405,1.618-0.748c0.498-0.343,0.928-0.776,1.294-1.229
	c0.361-0.448,0.608-0.96,0.741-1.49C60.347,73.732,60.352,73.234,60.233,72.782z M80.32,0c-44.183,0-80,35.817-80,80
	c0,44.183,35.817,80,80,80c44.183,0,80-35.817,80-80C160.32,35.817,124.503,0,80.32,0z M38.88,80.353
	c-0.462,1.742-0.933,3.543-1.403,5.335C37.001,87.489,36.544,90,36.101,91h-2.213l5.49-21h-7.214l0.599-1h16.571l-0.594,1h-7.145
	L38.88,80.353z M53.303,82.19c0.439,0.695,0.882,1.513,1.326,2.222c0.658,1.079,1.358,2.076,2.098,3.319
	C57.467,88.961,58.153,90,58.793,91h-2.875l-6.418-10.163c-0.462,1.742-0.923,3.294-1.371,4.995C47.675,87.528,47.218,90,46.752,91
	h-2.213l6.085-22h6.747c0.928,0,1.755-0.182,2.482,0.115c0.727,0.302,1.321,0.496,1.783,1.027c0.466,0.526,0.773,1.098,0.928,1.812
	c0.155,0.718,0.123,1.445-0.101,2.259c-0.219,0.841-0.603,1.596-1.157,2.309c-0.553,0.718-1.198,1.324-1.934,1.877
	c-0.741,0.549-1.554,0.929-2.45,1.235C56.032,79.944,55.122,80,54.194,80h-2.181C52.43,80.914,52.864,81.495,53.303,82.19z
	 M75.218,80h-9.691l-2.35,9h11.314l-0.562,2H60.398l6.089-22h13.527l-0.594,1H68.105l-1.984,8h9.691L75.218,80z M78.089,91H75.84
	l6.085-22h2.249L78.089,91z M94.354,91H81.417l6.089-22h2.181l-5.522,20h10.752L94.354,91z M108.366,91H95.429l6.089-22h2.181
	l-5.522,20h10.752L108.366,91z M125.138,91c0,0-2.021-4.165-4.174-8.951l-6.77-0.235L111.506,91h-2.318l6.382-22h1.751l10.427,22
	H125.138z M114.427,79.776l5.513,0.055l-3.401-7.387C116.539,72.443,114.473,79.136,114.427,79.776z M56.562,77.683
	c0.585-0.183,1.125-0.405,1.618-0.748c0.498-0.343,0.928-0.776,1.294-1.229c0.361-0.448,0.608-0.96,0.741-1.49
	c0.133-0.485,0.137-0.974,0.018-1.426c-0.123-0.453-0.343-0.864-0.663-1.207c-0.32-0.338-0.722-0.838-1.207-1.034
	C57.879,70.349,57.326,70,56.709,70h-4.43l-1.984,8h4.498C55.387,78,55.977,77.88,56.562,77.683z M60.233,72.782
	c-0.123-0.453-0.343-0.859-0.663-1.202c-0.32-0.338-0.722-0.835-1.207-1.032C57.879,70.346,57.326,70,56.709,70h-4.43l-1.984,8
	h4.498c0.594,0,1.184-0.12,1.769-0.317c0.585-0.183,1.125-0.405,1.618-0.748c0.498-0.343,0.928-0.776,1.294-1.229
	c0.361-0.448,0.608-0.96,0.741-1.49C60.347,73.732,60.352,73.234,60.233,72.782z M60.233,72.782
	c-0.123-0.453-0.343-0.859-0.663-1.202c-0.32-0.338-0.722-0.835-1.207-1.032C57.879,70.346,57.326,70,56.709,70h-4.43l-1.984,8
	h4.498c0.594,0,1.184-0.12,1.769-0.317c0.585-0.183,1.125-0.405,1.618-0.748c0.498-0.343,0.928-0.776,1.294-1.229
	c0.361-0.448,0.608-0.96,0.741-1.49C60.347,73.732,60.352,73.234,60.233,72.782z M60.233,72.782
	c-0.123-0.453-0.343-0.859-0.663-1.202c-0.32-0.338-0.722-0.835-1.207-1.032C57.879,70.346,57.326,70,56.709,70h-4.43l-1.984,8
	h4.498c0.594,0,1.184-0.12,1.769-0.317c0.585-0.183,1.125-0.405,1.618-0.748c0.498-0.343,0.928-0.776,1.294-1.229
	c0.361-0.448,0.608-0.96,0.741-1.49C60.347,73.732,60.352,73.234,60.233,72.782z M60.233,72.782
	c-0.123-0.453-0.343-0.859-0.663-1.202c-0.32-0.338-0.722-0.835-1.207-1.032C57.879,70.346,57.326,70,56.709,70h-4.43l-1.984,8
	h4.498c0.594,0,1.184-0.12,1.769-0.317c0.585-0.183,1.125-0.405,1.618-0.748c0.498-0.343,0.928-0.776,1.294-1.229
	c0.361-0.448,0.608-0.96,0.741-1.49C60.347,73.732,60.352,73.234,60.233,72.782z"/>
</svg>
